<?xml version="1.0" encoding="UTF-8" standalone="no" ?>
<!DOCTYPE svg PUBLIC "-//W3C//DTD SVG 1.1//EN" "http://www.w3.org/Graphics/SVG/1.1/DTD/svg11.dtd">
<svg xmlns="http://www.w3.org/2000/svg" xmlns:xlink="http://www.w3.org/1999/xlink" version="1.1" width="303.0178254699707" height="180.7188" xml:space="preserve">
<desc>Created with Fabric.js 1.6.0-rc.1</desc>
<defs></defs>
  <g transform="translate(157.23 53.03) scale(0.9 0.9)">
   <text font-family="Cargo Bay" font-size="40" font-weight="normal" style="stroke: none; stroke-width: 1; stroke-dasharray: none; stroke-linecap: butt; stroke-linejoin: miter; stroke-miterlimit: 10; fill: #304552; fill-rule: nonzero; opacity: 1;" ><tspan x="-36.69" y="8.98" style="stroke: none; stroke-width: 0; stroke-dasharray: none; stroke-linecap: butt; stroke-linejoin: miter; stroke-miterlimit: 4; fill: #304552; fill-rule: ; opacity: 1;">n</tspan><tspan x="-12.26" y="8.98" style="stroke: none; stroke-width: 0; stroke-dasharray: none; stroke-linecap: butt; stroke-linejoin: miter; stroke-miterlimit: 4; fill: #304552; fill-rule: ; opacity: 1;">s</tspan><tspan x="12.18" y="8.98" style="stroke: none; stroke-width: 0; stroke-dasharray: none; stroke-linecap: butt; stroke-linejoin: miter; stroke-miterlimit: 4; fill: #304552; fill-rule: ; opacity: 1;">u</tspan></text>
 </g>
<g style="stroke: none; stroke-width: 1; stroke-dasharray: none; stroke-linecap: butt; stroke-linejoin: miter; stroke-miterlimit: 10; fill: none; fill-rule: nonzero; opacity: 1;" transform="translate(10 10) scale(0.31 0.31)" >
  <path d="M 256 119.182 L 256 119.182 c -47.227 0 -85.511 38.285 -85.511 85.511 V 478.33 h 171.023 V 204.693 C 341.512 157.466 303.227 119.182 256 119.182 z" style="stroke: none; stroke-width: 1; stroke-dasharray: none; stroke-linecap: butt; stroke-linejoin: miter; stroke-miterlimit: 10; fill: #ffffff; fill-rule: nonzero; opacity: 1;" transform=" matrix(1 0 0 1 0 0) " stroke-linecap="round" />
  <path d="M 256 221.795 L 256 221.795 c -28.336 0 -51.307 22.971 -51.307 51.307 V 478.33 h 102.614 V 273.102 C 307.307 244.766 284.337 221.795 256 221.795 z" style="stroke: none; stroke-width: 1; stroke-dasharray: none; stroke-linecap: butt; stroke-linejoin: miter; stroke-miterlimit: 10; fill: #ffffff; fill-rule: nonzero; opacity: 1;" transform=" matrix(1 0 0 1 0 0) " stroke-linecap="round" />
  <path d="M 256 375.716 L 256 375.716 c -9.446 0 -17.102 7.656 -17.102 17.102 v 76.96 h 34.205 v -76.96 C 273.102 383.373 265.446 375.716 256 375.716 z" style="stroke: none; stroke-width: 1; stroke-dasharray: none; stroke-linecap: butt; stroke-linejoin: miter; stroke-miterlimit: 10; fill: #ffffff; fill-rule: nonzero; opacity: 1;" transform=" matrix(1 0 0 1 0 0) " stroke-linecap="round" />
  <path d="M 314.492 204.693 c 9.962 0 17.815 -8.482 17.052 -18.414 l -6.021 -78.27 c -0.691 -8.984 -6.046 -16.947 -14.105 -20.977 l -21.213 -10.607 h -68.409 l -21.213 10.607 c -8.059 4.03 -13.414 11.993 -14.105 20.977 l -6.021 78.27 c -0.764 9.932 7.09 18.414 17.052 18.414 h 15.736 v 68.409 c -9.445 0 -17.102 7.656 -17.102 17.102 v 8.551 h 35.512 c 4.18 0 7.747 -3.023 8.435 -7.146 l 14.486 -86.917 h 2.851 l 14.486 86.917 c 0.687 4.123 4.254 7.146 8.435 7.146 h 35.513 v -8.551 c 0 -9.446 -7.658 -17.102 -17.102 -17.102 v -68.409 H 314.492 z" style="stroke: none; stroke-width: 1; stroke-dasharray: none; stroke-linecap: butt; stroke-linejoin: miter; stroke-miterlimit: 10; fill: #D5DCED; fill-rule: nonzero; opacity: 1;" transform=" matrix(1 0 0 1 0 0) " stroke-linecap="round" />
  <circle cx="255.996" cy="50.775999999999996" r="42.756" style="stroke: none; stroke-width: 1; stroke-dasharray: none; stroke-linecap: butt; stroke-linejoin: miter; stroke-miterlimit: 10; fill: #ffffff; fill-rule: nonzero; opacity: 1;" transform="  matrix(1 0 0 1 0 0) "/>
  <path d="M 238.898 50.772 c 0 -19.113 12.627 -35.106 29.929 -40.581 C 264.753 8.903 260.5 8.017 256 8.017 c -23.613 0 -42.756 19.143 -42.756 42.756 S 232.387 93.528 256 93.528 c 4.5 0 8.753 -0.887 12.827 -2.175 C 251.525 85.878 238.898 69.885 238.898 50.772 z" style="stroke: none; stroke-width: 1; stroke-dasharray: none; stroke-linecap: butt; stroke-linejoin: miter; stroke-miterlimit: 10; fill: #ffffff; fill-rule: nonzero; opacity: 1;" transform=" matrix(1 0 0 1 0 0) " stroke-linecap="round" />
  <path d="M 298.151 44.773 C 295.21 24.027 277.559 8.017 256 8.017 c -21.556 0 -39.208 16.008 -42.151 36.752 C 226.289 37.705 240.673 33.67 256 33.67 C 271.328 33.67 285.709 37.711 298.151 44.773 z" style="stroke: none; stroke-width: 1; stroke-dasharray: none; stroke-linecap: butt; stroke-linejoin: miter; stroke-miterlimit: 10; fill: #E4EAF8; fill-rule: nonzero; opacity: 1;" transform=" matrix(1 0 0 1 0 0) " stroke-linecap="round" />
  <path d="M 213.849 44.768 c 8.585 -4.875 18.139 -8.182 28.248 -9.841 c 4.763 -11.727 14.528 -20.875 26.73 -24.735 C 264.753 8.903 260.5 8.017 256 8.017 C 234.444 8.017 216.792 24.024 213.849 44.768 z" style="stroke: none; stroke-width: 1; stroke-dasharray: none; stroke-linecap: butt; stroke-linejoin: miter; stroke-miterlimit: 10; fill: #D5DCED; fill-rule: nonzero; opacity: 1;" transform=" matrix(1 0 0 1 0 0) " stroke-linecap="round" />
  <path d="M 267.402 264.551 l 4.51 27.059 c 0.687 4.124 4.254 7.146 8.435 7.146 h 35.512 v -8.551 c 0 -9.446 -7.658 -17.102 -17.102 -17.102 v -8.551 H 267.402 z" style="stroke: none; stroke-width: 1; stroke-dasharray: none; stroke-linecap: butt; stroke-linejoin: miter; stroke-miterlimit: 10; fill: #959CB5; fill-rule: nonzero; opacity: 1;" transform=" matrix(1 0 0 1 0 0) " stroke-linecap="round" />
  <path d="M 244.598 264.551 h -31.354 v 8.551 c -9.445 0 -17.102 7.656 -17.102 17.102 v 8.551 h 35.512 c 4.18 0 7.747 -3.022 8.435 -7.146 L 244.598 264.551 z" style="stroke: none; stroke-width: 1; stroke-dasharray: none; stroke-linecap: butt; stroke-linejoin: miter; stroke-miterlimit: 10; fill: #959CB5; fill-rule: nonzero; opacity: 1;" transform=" matrix(1 0 0 1 0 0) " stroke-linecap="round" />
  <path d="M 264.551 170.489 h -17.102 c -4.722 0 -8.551 -3.829 -8.551 -8.551 v -34.205 c 0 -4.722 3.829 -8.551 8.551 -8.551 h 17.102 c 4.722 0 8.551 3.829 8.551 8.551 v 34.205 C 273.102 166.66 269.274 170.489 264.551 170.489 z" style="stroke: none; stroke-width: 1; stroke-dasharray: none; stroke-linecap: butt; stroke-linejoin: miter; stroke-miterlimit: 10; fill: #EFF3FB; fill-rule: nonzero; opacity: 1;" transform=" matrix(1 0 0 1 0 0) " stroke-linecap="round" />
  <path d="M 331.544 186.279 l -0.557 -7.24 h -32.231 v 25.653 h 15.736 C 324.454 204.693 332.308 196.211 331.544 186.279 z" style="stroke: none; stroke-width: 1; stroke-dasharray: none; stroke-linecap: butt; stroke-linejoin: miter; stroke-miterlimit: 10; fill: #959CB5; fill-rule: nonzero; opacity: 1;" transform=" matrix(1 0 0 1 0 0) " stroke-linecap="round" />
  <path d="M 181.013 179.04 l -0.557 7.24 c -0.764 9.932 7.09 18.414 17.052 18.414 h 15.736 V 179.04 H 181.013 z" style="stroke: none; stroke-width: 1; stroke-dasharray: none; stroke-linecap: butt; stroke-linejoin: miter; stroke-miterlimit: 10; fill: #959CB5; fill-rule: nonzero; opacity: 1;" transform=" matrix(1 0 0 1 0 0) " stroke-linecap="round" />
  <path d="M 360.489 469.779 H 151.512 c -3.924 0 -7.344 2.67 -8.296 6.477 l -6.932 27.727 h 239.432 l -6.932 -27.727 C 367.833 472.449 364.413 469.779 360.489 469.779 z" style="stroke: none; stroke-width: 1; stroke-dasharray: none; stroke-linecap: butt; stroke-linejoin: miter; stroke-miterlimit: 10; fill: #C7CFE2; fill-rule: nonzero; opacity: 1;" transform=" matrix(1 0 0 1 0 0) " stroke-linecap="round" />
  <path d="M 228.472 469.779 h -76.96 c -3.924 0 -7.344 2.67 -8.296 6.477 l -6.932 27.727 h 76.96 l 6.932 -27.727 C 221.128 472.449 224.548 469.779 228.472 469.779 z" style="stroke: none; stroke-width: 1; stroke-dasharray: none; stroke-linecap: butt; stroke-linejoin: miter; stroke-miterlimit: 10; fill: #AFB9D2; fill-rule: nonzero; opacity: 1;" transform=" matrix(1 0 0 1 0 0) " stroke-linecap="round" />
  <path d="M 197.508 212.71 h 7.72 v 53.687 c -9.932 3.353 -17.102 12.758 -17.102 23.807 v 8.551 c 0 4.427 3.589 8.017 8.017 8.017 h 42.756 c 3.92 0 7.263 -2.833 7.908 -6.699 L 256 244.906 l 9.195 55.168 c 0.645 3.866 3.988 6.699 7.908 6.699 h 42.756 c 4.427 0 8.017 -3.589 8.017 -8.017 v -8.551 c 0 -11.049 -7.17 -20.454 -17.102 -23.807 V 212.71 h 7.72 c 6.973 0 13.691 -2.935 18.43 -8.052 s 7.15 -12.04 6.614 -18.993 l -6.021 -78.27 c -0.902 -11.724 -7.995 -22.274 -18.513 -27.533 l -13.439 -6.719 c 3.331 -6.754 5.21 -14.346 5.21 -22.371 C 306.773 22.777 283.996 0 256 0 s -50.772 22.777 -50.772 50.772 c 0 8.025 1.879 15.617 5.209 22.371 l -13.439 6.719 c -10.517 5.259 -17.611 15.81 -18.512 27.533 l -6.021 78.27 c -0.534 6.953 1.876 13.876 6.614 18.993 C 183.817 209.775 190.534 212.71 197.508 212.71 z M 197.508 196.676 c -2.56 0 -4.927 -1.035 -6.666 -2.913 c -1.739 -1.878 -2.589 -4.318 -2.392 -6.87 l 0.646 -8.389 h 16.132 v 18.171 L 197.508 196.676 L 197.508 196.676 z M 221.284 49.89 c 10.716 -5.371 22.632 -8.203 34.717 -8.203 c 12.085 0 24.001 2.831 34.717 8.203 c 0.007 0.295 0.022 0.587 0.022 0.883 c 0 19.155 -15.584 34.739 -34.739 34.739 s -34.739 -15.584 -34.739 -34.739 C 221.261 50.476 221.276 50.185 221.284 49.89 z M 246.915 127.733 c 0 -0.295 0.239 -0.534 0.534 -0.534 h 17.102 c 0.295 0 0.534 0.239 0.534 0.534 v 34.205 c 0 0.295 -0.239 0.534 -0.534 0.534 h -17.102 c -0.295 0 -0.534 -0.239 -0.534 -0.534 V 127.733 z M 256 101.545 c 6.626 0 12.954 -1.289 18.762 -3.609 l -6.794 13.587 c -1.103 -0.232 -2.246 -0.358 -3.417 -0.358 h -17.102 c -1.171 0 -2.314 0.126 -3.417 0.358 l -6.794 -13.587 C 243.046 100.256 249.374 101.545 256 101.545 z M 247.449 178.505 h 17.102 c 9.136 0 16.568 -7.432 16.568 -16.568 v -0.534 h 9.62 v 20.76 l -27.331 10.933 c -1.212 -2.951 -4.102 -4.97 -7.409 -4.97 s -6.195 2.019 -7.409 4.97 l -27.331 -10.933 v -20.76 h 9.62 v 0.534 C 230.881 171.073 238.313 178.505 247.449 178.505 z M 266.304 209.205 l 24.435 -9.774 v 57.104 h -16.546 L 266.304 209.205 z M 237.808 256.534 h -16.546 v -57.102 l 24.435 9.774 L 237.808 256.534 z M 204.159 290.739 v -0.534 c 0 -5.01 4.076 -9.086 9.086 -9.086 c 4.427 0 8.017 -3.589 8.017 -8.017 v -0.534 h 13.874 l -3.028 18.171 H 204.159 z M 307.841 290.205 v 0.534 h -27.947 l -3.028 -18.171 h 13.873 v 0.534 c 0 4.427 3.589 8.017 8.017 8.017 C 303.766 281.119 307.841 285.195 307.841 290.205 z M 321.158 193.764 c -1.739 1.878 -4.107 2.913 -6.666 2.913 h -7.72 v -18.171 h 16.133 l 0.646 8.389 C 323.747 189.446 322.897 191.886 321.158 193.764 z M 317.53 108.625 l 4.142 53.847 h -14.899 v -34.739 c 0 -4.427 -3.589 -8.017 -8.017 -8.017 c -4.427 0 -8.017 3.589 -8.017 8.017 v 17.637 h -9.62 v -17.637 c 0 -1.766 -0.284 -3.465 -0.798 -5.063 l 16.89 -33.778 l 10.623 5.311 C 313.342 96.957 317.057 102.483 317.53 108.625 z M 256 16.033 c 11.307 0 21.365 5.432 27.713 13.821 c -8.932 -2.764 -18.281 -4.201 -27.713 -4.201 s -18.782 1.437 -27.713 4.201 C 234.634 21.466 244.693 16.033 256 16.033 z M 204.167 94.203 l 10.623 -5.311 l 16.89 33.778 c -0.514 1.597 -0.798 3.296 -0.798 5.063 v 17.637 h -9.62 v -17.637 c 0 -4.427 -3.589 -8.017 -8.017 -8.017 s -8.017 3.589 -8.017 8.017 v 34.739 h -14.899 l 4.142 -53.847 C 194.943 102.483 198.658 96.957 204.167 94.203 z" style="stroke: none; stroke-width: 1; stroke-dasharray: none; stroke-linecap: butt; stroke-linejoin: miter; stroke-miterlimit: 10; fill: #000002; fill-rule: nonzero; opacity: 1;" transform=" matrix(1 0 0 1 0 0) " stroke-linecap="round" />
  <path d="M 383.493 502.039 l -6.932 -27.728 c -1.848 -7.388 -8.457 -12.549 -16.073 -12.549 H 349.52 l 0.009 -171.557 c 0 -4.427 -3.588 -8.017 -8.017 -8.017 l 0 0 c -4.427 0 -8.017 3.589 -8.017 8.017 l -0.009 171.557 h -18.171 v -77.495 c 0 -4.427 -3.589 -8.017 -8.017 -8.017 c -4.427 0 -8.017 3.589 -8.017 8.017 v 77.495 h -18.171 v -26.19 c 0 -4.427 -3.589 -8.017 -8.017 -8.017 s -8.017 3.589 -8.017 8.017 v 26.19 h -18.163 V 332.96 c 0 -4.427 -3.589 -8.017 -8.017 -8.017 s -8.017 3.589 -8.017 8.017 v 128.802 H 212.71 v -77.494 c 0 -4.427 -3.589 -8.017 -8.017 -8.017 c -4.427 0 -8.017 3.589 -8.017 8.017 v 77.494 h -18.171 l 0.009 -171.554 c 0 -4.427 -3.588 -8.017 -8.017 -8.017 l 0 0 c -4.427 0 -8.017 3.589 -8.017 8.017 l -0.009 171.554 h -10.96 c -7.616 0 -14.226 5.161 -16.073 12.55 l -6.932 27.727 c -0.6 2.395 -0.061 4.932 1.458 6.878 c 1.519 1.946 3.85 3.083 6.319 3.083 h 239.432 c 2.469 0 4.799 -1.137 6.319 -3.084 C 383.555 506.97 384.092 504.434 383.493 502.039 z M 146.552 495.967 l 4.441 -17.766 c 0.06 -0.239 0.273 -0.405 0.518 -0.405 h 208.977 c 0.246 0 0.46 0.167 0.518 0.404 l 4.441 17.767 H 146.552 z" style="stroke: none; stroke-width: 1; stroke-dasharray: none; stroke-linecap: butt; stroke-linejoin: miter; stroke-miterlimit: 10; fill: #000002; fill-rule: nonzero; opacity: 1;" transform=" matrix(1 0 0 1 0 0) " stroke-linecap="round" />
  <path d="M 196.677 332.96 v 17.103 c 0 4.427 3.589 8.017 8.017 8.017 c 4.427 0 8.017 -3.589 8.017 -8.017 V 332.96 c 0 -4.427 -3.589 -8.017 -8.017 -8.017 C 200.266 324.944 196.677 328.533 196.677 332.96 z" style="stroke: none; stroke-width: 1; stroke-dasharray: none; stroke-linecap: butt; stroke-linejoin: miter; stroke-miterlimit: 10; fill: #000002; fill-rule: nonzero; opacity: 1;" transform=" matrix(1 0 0 1 0 0) " stroke-linecap="round" />
  <path d="M 265.077 332.958 v 68.409 c 0 4.427 3.589 8.017 8.017 8.017 s 8.017 -3.589 8.017 -8.017 v -68.409 c 0 -4.427 -3.589 -8.017 -8.017 -8.017 S 265.077 328.53 265.077 332.958 z" style="stroke: none; stroke-width: 1; stroke-dasharray: none; stroke-linecap: butt; stroke-linejoin: miter; stroke-miterlimit: 10; fill: #000002; fill-rule: nonzero; opacity: 1;" transform=" matrix(1 0 0 1 0 0) " stroke-linecap="round" />
  <path d="M 299.282 332.958 v 17.103 c 0 4.427 3.589 8.017 8.017 8.017 c 4.427 0 8.017 -3.589 8.017 -8.017 v -17.103 c 0 -4.427 -3.589 -8.017 -8.017 -8.017 C 302.871 324.941 299.282 328.53 299.282 332.958 z" style="stroke: none; stroke-width: 1; stroke-dasharray: none; stroke-linecap: butt; stroke-linejoin: miter; stroke-miterlimit: 10; fill: #000002; fill-rule: nonzero; opacity: 1;" transform=" matrix(1 0 0 1 0 0) " stroke-linecap="round" />
  <path d="M 170.489 264.017 c 4.427 0 8.017 -3.589 8.017 -8.017 v -25.653 c 0 -4.427 -3.589 -8.017 -8.017 -8.017 c -4.427 0 -8.017 3.589 -8.017 8.017 V 256 C 162.472 260.427 166.061 264.017 170.489 264.017 z" style="stroke: none; stroke-width: 1; stroke-dasharray: none; stroke-linecap: butt; stroke-linejoin: miter; stroke-miterlimit: 10; fill: #000002; fill-rule: nonzero; opacity: 1;" transform=" matrix(1 0 0 1 0 0) " stroke-linecap="round" />
  <path d="M 333.495 230.347 V 256 c 0 4.427 3.589 8.017 8.017 8.017 c 4.427 0 8.017 -3.589 8.017 -8.017 v -25.653 c 0 -4.427 -3.589 -8.017 -8.017 -8.017 C 337.084 222.33 333.495 225.919 333.495 230.347 z" style="stroke: none; stroke-width: 1; stroke-dasharray: none; stroke-linecap: butt; stroke-linejoin: miter; stroke-miterlimit: 10; fill: #000002; fill-rule: nonzero; opacity: 1;" transform=" matrix(1 0 0 1 0 0) " stroke-linecap="round" />
</g>
  <g transform="translate(207.96 115.43) scale(2.15 2.15)">
   <text font-family="REIS" font-size="40" font-weight="normal" style="stroke: none; stroke-width: 1; stroke-dasharray: none; stroke-linecap: butt; stroke-linejoin: miter; stroke-miterlimit: 10; fill: #360736; fill-rule: nonzero; opacity: 1;" ><tspan x="-40.06" y="8.98" style="stroke: none; stroke-width: 0; stroke-dasharray: none; stroke-linecap: butt; stroke-linejoin: miter; stroke-miterlimit: 4; fill: #360736; fill-rule: ; opacity: 1;">C</tspan><tspan x="-26.66" y="8.98" style="stroke: none; stroke-width: 0; stroke-dasharray: none; stroke-linecap: butt; stroke-linejoin: miter; stroke-miterlimit: 4; fill: #360736; fill-rule: ; opacity: 1;">L</tspan><tspan x="-15.66" y="8.98" style="stroke: none; stroke-width: 0; stroke-dasharray: none; stroke-linecap: butt; stroke-linejoin: miter; stroke-miterlimit: 4; fill: #360736; fill-rule: ; opacity: 1;">U</tspan><tspan x="0.18" y="8.98" style="stroke: none; stroke-width: 0; stroke-dasharray: none; stroke-linecap: butt; stroke-linejoin: miter; stroke-miterlimit: 4; fill: #360736; fill-rule: ; opacity: 1;">B</tspan><tspan x="14.86" y="8.98" style="stroke: none; stroke-width: 0; stroke-dasharray: none; stroke-linecap: butt; stroke-linejoin: miter; stroke-miterlimit: 4; fill: #360736; fill-rule: ; opacity: 1;">E</tspan><tspan x="26.78" y="8.98" style="stroke: none; stroke-width: 0; stroke-dasharray: none; stroke-linecap: butt; stroke-linejoin: miter; stroke-miterlimit: 4; fill: #360736; fill-rule: ; opacity: 1;">R</tspan></text>
 </g>
</svg>